<?xml version="1.0" encoding="UTF-8" standalone="no"?>
<!DOCTYPE svg PUBLIC "-//W3C//DTD SVG 1.1//EN" "http://www.w3.org/Graphics/SVG/1.1/DTD/svg11.dtd">
<svg width="100%" height="100%" viewBox="0 0 1000 120" version="1.1" xmlns="http://www.w3.org/2000/svg" xmlns:xlink="http://www.w3.org/1999/xlink" xml:space="preserve" xmlns:serif="http://www.serif.com/" style="fill-rule:evenodd;clip-rule:evenodd;stroke-linejoin:round;stroke-miterlimit:2;">
    <g transform="matrix(3.23622,0,0,3.23622,-446.113,-1269.42)">
        <path d="M167.952,428.745C182.602,428.745 190.352,423.145 190.352,412.545L190.352,392.845L172.902,392.845L172.902,412.145C172.902,415.845 171.202,417.745 167.902,417.745C164.652,417.745 162.902,415.845 162.902,412.145L162.902,392.845L145.452,392.845L145.452,412.545C145.452,423.145 153.252,428.745 167.952,428.745Z" style="fill:white;fill-rule:nonzero;"/>
        <path d="M220.002,392.845L195.102,392.845L195.102,427.845L212.052,427.845L212.052,419.295L220.452,419.295C231.052,419.295 237.102,414.395 237.102,405.845C237.102,397.595 230.902,392.845 220.002,392.845ZM215.252,411.345L212.052,411.345L212.052,404.995L215.152,404.995C217.452,404.995 218.702,406.095 218.702,408.145C218.702,410.195 217.502,411.345 215.252,411.345Z" style="fill:white;fill-rule:nonzero;"/>
        <path d="M265.302,392.845L240.402,392.845L240.402,427.845L257.352,427.845L257.352,419.295L265.752,419.295C276.352,419.295 282.402,414.395 282.402,405.845C282.402,397.595 276.202,392.845 265.302,392.845ZM260.552,411.345L257.352,411.345L257.352,404.995L260.452,404.995C262.752,404.995 264.002,406.095 264.002,408.145C264.002,410.195 262.802,411.345 260.552,411.345Z" style="fill:white;fill-rule:nonzero;"/>
        <path d="M323.552,404.995L323.552,392.845L285.702,392.845L285.702,427.845L323.652,427.845L323.652,417.595L303.152,417.595L303.152,415.045L318.302,415.045L318.302,407.495L303.152,407.495L303.152,404.995L323.552,404.995Z" style="fill:white;fill-rule:nonzero;"/>
        <path d="M326.302,404.995L339.752,404.995L339.752,427.845L357.152,427.845L357.152,404.995L370.602,404.995L370.602,392.845L326.302,392.845L326.302,404.995Z" style="fill:white;fill-rule:nonzero;"/>
        <rect x="374.052" y="392.845" width="17.45" height="35" style="fill:white;fill-rule:nonzero;"/>
        <path d="M394.952,404.995L408.402,404.995L408.402,427.845L425.802,427.845L425.802,404.995L439.252,404.995L439.252,392.845L394.952,392.845L394.952,404.995Z" style="fill:white;fill-rule:nonzero;"/>
    </g>
</svg>
